M48
; DRILL file {KiCad (5.1.4)-1} date 1/29/2021 12:05:15 PM
; FORMAT={-:-/ absolute / inch / decimal}
; #@! TF.CreationDate,2021-01-29T12:05:15-05:00
; #@! TF.GenerationSoftware,Kicad,Pcbnew,(5.1.4)-1
; #@! TF.FileFunction,Plated,1,2,PTH
FMAT,2
INCH
T1C0.0157
T2C0.0236
T3C0.1063
%
G90
G05
T1
X2.3908Y-2.2958
X2.7313Y-2.4645
X2.7423Y-2.6305
X2.7715Y-2.6013
X2.4801Y-2.3616
X2.4801Y-2.4147
X2.5136Y-2.3616
X2.5136Y-2.4147
X2.5471Y-2.3616
X2.5471Y-2.4147
X2.5805Y-2.3616
X2.5805Y-2.4147
X2.614Y-2.3616
X2.614Y-2.4147
X2.6475Y-2.3616
X2.6475Y-2.4147
X2.6809Y-2.3616
X2.6809Y-2.4147
X2.7144Y-2.3616
X2.7144Y-2.4147
T2
X2.5496Y-2.6378
X2.5866Y-2.2008
X2.5866Y-2.2805
X2.6807Y-2.6378
T3
X3.0787Y-2.2756
X2.878Y-2.8819
X2.1181Y-2.2756
X2.3504Y-2.8819
T2
G00X2.427Y-2.2588
M15
G01X2.427Y-2.2273
M16
G05
G00X2.427Y-2.4056
M15
G01X2.427Y-2.3466
M16
G05
G00X2.7675Y-2.2588
M15
G01X2.7675Y-2.2273
M16
G05
G00X2.7675Y-2.4056
M15
G01X2.7675Y-2.3466
M16
G05
T0
M30
